<svg width="771" height="770" viewBox="0 0 771 770" fill="none" xmlns="http://www.w3.org/2000/svg">
<path d="M652.573 0C717.564 0 770.25 52.6357 770.25 117.565V651.952C770.25 716.882 717.564 769.517 652.573 769.517H117.677C52.6858 769.517 0 716.882 0 651.952V117.565C0 52.6357 52.6858 0 117.677 0H652.573ZM652.573 64.1264H117.677C88.1356 64.1264 64.1875 88.0518 64.1875 117.565V651.952C64.1875 681.466 88.1356 705.391 117.677 705.391H652.573C682.114 705.391 706.062 681.466 706.062 651.952V117.565C706.062 88.0518 682.114 64.1264 652.573 64.1264ZM299.542 489.043L576.39 212.458C588.923 199.937 609.244 199.937 621.777 212.458C633.171 223.841 634.207 241.654 624.885 254.206L621.777 257.802L472.006 407.431L322.235 557.059C310.841 568.442 293.012 569.477 280.448 560.164L276.848 557.059L148.473 428.806C135.94 416.285 135.94 395.984 148.473 383.462C159.867 372.079 177.697 371.044 190.261 380.358L193.86 383.462L299.542 489.043Z" fill="#212121"/>
</svg>
